<?xml version="1.0" standalone="no"?>
<!DOCTYPE svg PUBLIC "-//W3C//DTD SVG 20010904//EN"
 "http://www.w3.org/TR/2001/REC-SVG-20010904/DTD/svg10.dtd">
<svg version="1.0" xmlns="http://www.w3.org/2000/svg"
 width="512.000000pt" height="512.000000pt" viewBox="0 0 512.000000 512.000000"
 preserveAspectRatio="xMidYMid meet">
<metadata>
Created by potrace 1.14, written by Peter Selinger 2001-2017
</metadata>
<g transform="translate(0.000000,512.000000) scale(0.100000,-0.100000)"
fill="#000000" stroke="none">
<path d="M2398 4605 c-2 -2 -30 -6 -63 -9 -58 -6 -93 -11 -145 -21 -14 -3 -34
-7 -45 -9 -173 -33 -421 -130 -596 -232 -188 -110 -449 -337 -560 -489 -24
-33 -47 -62 -50 -65 -7 -6 -99 -146 -115 -175 -31 -59 -84 -166 -101 -205 -60
-134 -119 -338 -139 -475 -4 -22 -11 -43 -18 -47 -8 -5 -7 -8 2 -8 8 0 11 -7
8 -17 -3 -10 -7 -37 -8 -60 -2 -24 -7 -43 -12 -43 -5 0 -2 -7 5 -17 8 -9 10
-18 4 -20 -10 -3 -12 -170 -2 -179 3 -3 1 -19 -3 -35 -5 -18 -5 -31 2 -35 6
-4 5 -10 -3 -15 -10 -6 -11 -11 -3 -16 10 -7 16 -38 29 -156 2 -21 7 -42 10
-47 3 -6 -2 -7 -12 -4 -17 5 -17 5 0 -6 12 -8 16 -18 11 -32 -3 -12 -2 -18 3
-15 6 4 16 -25 25 -63 10 -48 11 -70 4 -70 -6 0 -3 -5 7 -11 9 -5 17 -18 17
-28 0 -10 9 -38 19 -62 11 -24 21 -53 23 -64 1 -11 5 -22 8 -25 3 -3 11 -16
18 -29 13 -22 12 -23 -5 -17 -17 6 -17 5 1 -9 19 -14 61 -93 58 -107 -1 -5 3
-8 9 -8 7 0 9 -10 7 -24 -4 -17 -1 -23 9 -19 7 3 13 -2 13 -11 0 -9 5 -16 10
-16 6 0 10 -5 10 -11 0 -5 11 -26 24 -46 14 -19 22 -42 19 -51 -4 -9 -2 -13 4
-9 6 4 19 -3 29 -16 16 -19 16 -20 1 -8 -15 12 -17 12 -11 -3 3 -9 12 -16 20
-16 8 0 14 -4 14 -10 0 -18 4 -25 33 -49 19 -16 26 -30 22 -45 -2 -11 -2 -15
1 -8 3 6 10 12 15 12 11 0 12 -27 2 -33 -5 -2 -3 -2 4 -1 10 2 43 -28 130
-121 6 -7 10 -21 9 -31 -2 -11 -1 -13 1 -6 6 18 10 16 51 -25 20 -20 32 -34
27 -30 -6 3 -11 -4 -12 -16 0 -12 1 -16 4 -9 8 20 44 14 50 -8 3 -11 10 -17
16 -13 7 4 8 0 3 -12 -5 -15 -4 -16 9 -5 9 8 15 8 15 2 0 -6 -4 -14 -10 -17
-5 -3 -10 -11 -10 -18 0 -6 6 -2 14 9 8 10 18 15 22 11 5 -4 2 -12 -5 -16 -9
-6 -10 -11 -2 -15 6 -4 11 -2 11 3 0 6 5 11 11 11 6 0 8 -9 4 -22 -5 -17 -4
-19 4 -8 8 12 13 12 35 0 25 -13 34 -34 19 -43 -5 -2 -3 -3 3 -1 6 1 18 -3 25
-9 10 -10 10 -8 0 6 -12 15 -12 17 3 11 9 -3 16 -12 16 -20 0 -8 5 -14 11 -14
5 0 7 5 3 11 -3 6 19 -6 50 -27 31 -20 56 -44 57 -53 0 -10 2 -12 6 -3 7 19
23 14 16 -5 -5 -14 -3 -15 7 -6 14 13 43 6 34 -9 -4 -6 -10 -5 -15 3 -5 8 -9
9 -9 3 0 -6 8 -18 17 -25 9 -8 14 -9 10 -3 -10 17 20 26 35 11 7 -7 21 -16 31
-20 11 -4 15 -12 11 -19 -5 -10 -4 -10 6 -1 10 9 19 9 41 -3 16 -8 29 -20 29
-26 0 -9 3 -9 11 -1 9 9 17 6 31 -10 11 -12 17 -16 13 -9 -7 14 11 17 20 2 4
-6 11 -7 17 -4 6 4 8 -2 4 -17 -6 -20 -5 -21 4 -6 8 12 16 15 28 8 9 -5 22
-11 27 -13 6 -1 10 -11 9 -20 0 -9 3 -15 8 -12 4 3 8 13 8 22 1 16 1 16 11 0
5 -10 15 -18 22 -18 8 0 6 4 -3 11 -12 9 -12 10 3 5 10 -3 26 -6 35 -6 13 -1
12 -4 -5 -13 l-23 -13 33 -18 32 -18 -25 21 c-23 19 -24 21 -5 22 21 2 49 1
78 -3 23 -3 22 -18 -2 -18 -11 0 -23 -5 -27 -11 -4 -8 1 -9 17 -3 13 4 29 7
36 7 7 0 10 3 8 7 -2 3 9 4 26 2 16 -2 29 -8 29 -12 0 -4 7 -11 16 -14 15 -6
15 -4 3 11 -8 9 -9 14 -2 10 13 -8 63 -17 106 -19 20 -1 26 -6 22 -17 -2 -9 0
-23 6 -31 8 -12 9 -10 4 8 -6 21 -5 23 13 13 26 -14 42 -14 22 -1 -12 8 -10
10 10 10 14 0 62 2 107 3 45 2 79 -1 77 -5 -3 -4 0 -8 5 -8 6 0 11 4 11 9 0 5
20 9 44 8 35 0 43 -4 38 -15 -3 -10 -1 -13 6 -8 7 4 12 14 12 22 0 8 5 12 10
9 7 -4 6 -13 -1 -27 -8 -15 -8 -23 2 -32 9 -8 10 -8 5 1 -8 14 18 70 31 65 4
-2 13 -11 18 -20 6 -11 24 -17 46 -18 30 0 35 2 31 18 -2 10 -8 18 -13 18 -5
0 -6 -6 -3 -13 3 -8 -2 -14 -11 -14 -8 0 -15 4 -15 8 0 5 -7 6 -15 3 -8 -4
-15 -1 -15 5 0 6 12 12 28 13 39 2 66 6 72 8 3 2 15 4 28 5 25 3 30 -10 6 -19
-22 -9 -26 -8 -18 6 4 7 3 8 -5 4 -16 -10 -2 -29 16 -22 9 4 23 1 32 -6 14
-11 14 -11 3 4 -9 11 -10 18 -2 23 6 3 8 10 5 14 -2 5 7 7 20 5 14 -1 25 2 25
6 0 9 22 7 53 -5 10 -4 17 -3 17 5 0 6 -4 9 -9 5 -5 -3 -12 -1 -16 5 -3 5 3
10 14 10 12 0 21 -5 21 -11 0 -5 5 -7 10 -4 6 4 7 11 4 17 -4 6 -2 8 4 4 6 -3
14 -2 17 4 4 6 14 10 23 8 10 -1 27 3 40 10 12 7 22 10 22 6 0 -3 7 0 17 7 14
12 16 12 11 -1 -3 -8 -12 -14 -21 -14 -9 1 -14 -2 -12 -6 3 -5 14 -8 25 -7 10
1 16 5 14 9 -3 4 0 8 5 8 6 0 10 5 8 11 -1 6 4 14 11 16 8 3 10 -1 5 -14 -4
-12 2 -9 20 10 31 32 34 32 61 9 20 -16 20 -16 7 1 -13 16 -9 31 7 32 4 1 27
11 51 24 23 12 40 18 36 12 -3 -6 -1 -11 4 -11 6 0 11 7 11 15 0 8 5 15 11 15
6 0 8 -8 5 -17 -5 -14 -3 -14 9 2 27 38 36 45 46 40 5 -4 9 -1 9 5 0 7 5 6 14
-2 8 -7 12 -16 9 -20 -2 -4 3 -5 12 -2 14 6 14 8 -2 20 -16 12 -16 15 -3 24 8
5 20 8 27 5 7 -2 15 1 19 7 5 7 2 8 -6 3 -9 -6 -11 -4 -6 4 5 7 10 10 13 7 3
-3 16 6 30 20 21 21 27 23 41 12 12 -10 14 -10 8 0 -4 7 -2 12 4 12 6 0 8 5 4
12 -4 6 -3 8 3 5 6 -4 13 0 17 8 8 22 37 19 30 -2 -5 -14 -4 -15 4 -4 6 8 8
20 5 28 -3 7 2 13 12 13 9 0 13 5 9 11 -4 7 -1 10 7 7 8 -3 13 -14 13 -26 -1
-12 2 -19 6 -17 5 3 6 19 4 35 -3 17 -1 30 4 30 6 0 20 11 33 24 13 13 29 22
36 19 7 -3 13 1 13 9 0 7 17 29 37 48 20 19 34 30 30 24 -4 -7 -1 -14 7 -17
10 -4 12 0 9 14 -6 23 25 62 43 55 8 -3 11 1 8 9 -3 8 4 20 15 27 12 7 21 18
21 25 0 7 4 13 10 13 12 0 9 -22 -5 -33 -6 -5 -4 -7 5 -4 8 2 15 10 15 18 0 8
8 13 18 13 9 -1 14 3 11 8 -3 5 -12 7 -20 4 -8 -3 -14 -1 -14 3 0 15 23 19 45
9 19 -9 19 -9 1 6 -16 13 -17 17 -3 30 8 8 16 14 18 13 2 -1 3 0 2 2 -4 7 31
61 40 61 4 0 5 -5 1 -12 -4 -7 -3 -8 5 -4 6 4 9 11 6 16 -9 14 6 40 34 56 14
8 18 13 9 10 -15 -5 -16 -3 -5 14 6 11 17 20 24 20 6 0 15 5 19 12 4 7 3 8 -4
4 -7 -4 -12 -3 -12 3 0 5 4 13 10 16 5 3 17 21 26 40 9 19 21 32 26 29 5 -3 8
0 7 7 -5 23 32 90 45 82 6 -4 5 1 -3 10 -7 9 -9 17 -4 17 10 0 38 59 48 103 4
15 12 27 18 27 6 0 8 3 4 6 -3 3 5 30 18 60 13 30 25 58 27 62 2 4 7 6 12 4 5
-2 5 3 -1 10 -12 16 8 93 21 81 5 -4 6 -2 2 5 -5 8 -1 19 10 28 15 11 15 13 3
8 -13 -4 -15 0 -12 21 5 22 8 24 22 13 14 -12 14 -11 3 4 -11 14 -11 29 -1 88
7 38 18 70 24 70 5 0 3 5 -5 10 -13 8 -12 11 5 25 20 15 20 15 0 9 -16 -6 -18
-4 -8 6 6 7 9 19 6 26 -3 8 1 22 8 31 10 12 10 15 2 9 -7 -4 -13 -2 -13 3 0 6
5 11 11 11 8 0 9 4 0 13 -6 8 -8 16 -5 20 7 7 11 247 4 247 -3 0 -5 21 -4 47
0 27 -2 53 -5 58 -6 11 -6 11 -15 81 -3 29 -15 91 -26 138 -12 48 -18 91 -15
96 3 5 1 11 -4 14 -7 5 -46 106 -56 146 -11 41 -106 233 -161 325 -70 116 -78
129 -84 135 -3 3 -30 37 -60 75 -197 255 -499 484 -800 610 -129 53 -351 117
-460 131 -25 3 -72 9 -105 14 -55 8 -370 12 -377 5z m2 -4005 c-18 -12 -30
-13 -30 -2 0 4 10 9 22 9 18 2 20 0 8 -7z"/>
<path d="M556 2313 c-6 -14 -5 -15 5 -6 7 7 10 15 7 18 -3 3 -9 -2 -12 -12z"/>
<path d="M4510 2056 c0 -2 8 -10 18 -17 15 -13 16 -12 3 4 -13 16 -21 21 -21
13z"/>
<path d="M4479 1933 c-13 -16 -12 -17 4 -4 16 13 21 21 13 21 -2 0 -10 -8 -17
-17z"/>
<path d="M650 1906 c0 -2 7 -7 16 -10 8 -3 12 -2 9 4 -6 10 -25 14 -25 6z"/>
<path d="M4456 1895 c-9 -26 -7 -32 5 -12 6 10 9 21 6 23 -2 3 -7 -2 -11 -11z"/>
<path d="M4424 1802 c4 -3 14 -7 22 -8 9 -1 13 0 10 4 -4 3 -14 7 -22 8 -9 1
-13 0 -10 -4z"/>
<path d="M760 1660 c-9 -6 -10 -10 -3 -10 6 0 15 5 18 10 8 12 4 12 -15 0z"/>
<path d="M4305 1580 c-3 -6 1 -7 9 -4 18 7 21 14 7 14 -6 0 -13 -4 -16 -10z"/>
<path d="M835 1540 c-3 -5 -1 -10 4 -10 6 0 11 5 11 10 0 6 -2 10 -4 10 -3 0
-8 -4 -11 -10z"/>
<path d="M4206 1418 c3 -5 10 -6 15 -3 13 9 11 12 -6 12 -8 0 -12 -4 -9 -9z"/>
<path d="M4171 1364 c0 -11 3 -14 6 -6 3 7 2 16 -1 19 -3 4 -6 -2 -5 -13z"/>
<path d="M1016 1287 c3 -8 11 -14 19 -14 20 0 19 4 -5 17 -15 8 -18 8 -14 -3z"/>
<path d="M1057 1249 c7 -7 15 -10 18 -7 3 3 -2 9 -12 12 -14 6 -15 5 -6 -5z"/>
<path d="M4037 1233 c-4 -6 0 -13 8 -17 8 -3 17 0 21 6 4 6 3 8 -4 4 -5 -3
-12 -1 -14 6 -3 8 -6 9 -11 1z"/>
<path d="M1086 1223 c6 -4 10 -16 9 -25 -2 -11 2 -15 12 -11 10 4 11 8 3 13
-6 4 -11 11 -10 16 1 5 -4 10 -12 12 -9 2 -9 1 -2 -5z"/>
<path d="M3991 1186 c-9 -11 -9 -16 1 -22 7 -4 10 -4 6 1 -4 4 -3 14 3 22 6 7
9 13 6 13 -2 0 -10 -6 -16 -14z"/>
<path d="M1115 1170 c3 -5 8 -10 11 -10 2 0 4 5 4 10 0 6 -5 10 -11 10 -5 0
-7 -4 -4 -10z"/>
<path d="M1169 1138 c7 -9 10 -22 7 -27 -4 -5 -1 -13 5 -17 7 -4 9 -3 5 4 -3
5 -1 12 5 14 6 2 0 12 -13 23 -16 14 -19 15 -9 3z"/>
<path d="M3940 1120 c-9 -6 -10 -10 -3 -10 6 0 15 5 18 10 8 12 4 12 -15 0z"/>
<path d="M1230 1075 c0 -2 6 -8 13 -14 10 -8 14 -7 14 2 0 8 -6 14 -14 14 -7
0 -13 -1 -13 -2z"/>
<path d="M3910 1066 c0 -2 7 -7 16 -10 8 -3 12 -2 9 4 -6 10 -25 14 -25 6z"/>
<path d="M3857 1047 c-3 -8 1 -14 8 -14 7 0 11 6 8 14 -3 7 -6 13 -8 13 -2 0
-5 -6 -8 -13z"/>
<path d="M3820 1025 c-7 -9 -8 -15 -2 -15 5 0 12 7 16 15 3 8 4 15 2 15 -2 0
-9 -7 -16 -15z"/>
<path d="M1376 962 c-3 -5 1 -9 9 -9 8 0 12 4 9 9 -3 4 -7 8 -9 8 -2 0 -6 -4
-9 -8z"/>
<path d="M3705 919 c-3 -4 2 -6 10 -5 21 3 28 13 10 13 -9 0 -18 -4 -20 -8z"/>
<path d="M3645 900 c-10 -11 -14 -20 -9 -20 5 0 3 -4 -5 -9 -8 -5 -16 -17 -17
-25 -1 -9 2 -14 7 -10 5 3 7 9 4 14 -3 4 2 11 11 14 8 3 12 10 9 16 -3 5 -2
10 3 10 6 0 12 7 16 15 7 20 3 19 -19 -5z"/>
<path d="M1500 880 c0 -5 5 -10 11 -10 5 0 7 5 4 10 -3 6 -8 10 -11 10 -2 0
-4 -4 -4 -10z"/>
<path d="M1519 852 c-13 -16 -13 -16 5 -2 18 14 19 13 14 -8 -4 -12 -2 -20 3
-16 12 7 12 31 0 38 -5 3 -15 -2 -22 -12z"/>
<path d="M3505 820 c-8 -13 -16 -54 -9 -47 3 3 6 9 6 14 0 4 4 16 9 26 10 18
5 24 -6 7z"/>
<path d="M3531 804 c0 -11 3 -14 6 -6 3 7 2 16 -1 19 -3 4 -6 -2 -5 -13z"/>
<path d="M1580 806 c0 -2 8 -10 18 -17 15 -13 16 -12 3 4 -13 16 -21 21 -21
13z"/>
<path d="M1650 795 c0 -8 4 -15 10 -15 5 0 7 7 4 15 -4 8 -8 15 -10 15 -2 0
-4 -7 -4 -15z"/>
<path d="M1680 770 c-9 -6 -10 -10 -3 -10 6 0 15 5 18 10 8 12 4 12 -15 0z"/>
<path d="M3410 765 c0 -8 2 -15 4 -15 2 0 6 7 10 15 3 8 1 15 -4 15 -6 0 -10
-7 -10 -15z"/>
<path d="M1733 755 c0 -8 4 -15 9 -15 4 0 8 4 8 9 0 6 -4 12 -8 15 -5 3 -9 -1
-9 -9z"/>
<path d="M3380 760 c-11 -7 -11 -10 -2 -10 8 0 10 -5 6 -12 -4 -7 -3 -9 1 -5
7 6 17 37 12 37 -1 0 -9 -5 -17 -10z"/>
<path d="M1767 734 c4 -11 3 -15 -5 -10 -6 3 -13 2 -16 -3 -4 -5 2 -8 11 -7
20 3 28 21 14 31 -7 4 -8 0 -4 -11z"/>
<path d="M3347 739 c7 -7 15 -10 18 -7 3 3 -2 9 -12 12 -14 6 -15 5 -6 -5z"/>
<path d="M1810 721 c0 -6 4 -13 10 -16 6 -3 7 1 4 9 -7 18 -14 21 -14 7z"/>
<path d="M3300 721 c0 -5 7 -12 16 -15 14 -5 15 -4 4 9 -14 17 -20 19 -20 6z"/>
<path d="M1855 700 c-3 -5 -1 -10 4 -10 6 0 11 5 11 10 0 6 -2 10 -4 10 -3 0
-8 -4 -11 -10z"/>
<path d="M3290 696 c0 -2 8 -10 18 -17 15 -13 16 -12 3 4 -13 16 -21 21 -21
13z"/>
<path d="M1901 677 c2 -1 12 -9 22 -16 15 -12 17 -12 11 3 -3 9 -13 16 -22 16
-8 0 -13 -1 -11 -3z"/>
<path d="M3155 669 c-4 -6 -4 -13 -1 -16 3 -4 6 -1 6 6 0 7 5 9 10 6 6 -4 7
-11 4 -17 -4 -7 -2 -8 5 -4 9 6 9 11 0 22 -14 17 -16 17 -24 3z"/>
<path d="M3102 649 c-10 -16 -11 -24 -2 -33 8 -8 9 -6 4 9 -7 18 -6 19 12 5
17 -14 18 -14 6 2 -8 10 -9 19 -3 22 5 3 12 1 14 -4 3 -6 4 -5 3 2 -4 20 -21
19 -34 -3z"/>
<path d="M1970 639 c0 -5 5 -7 10 -4 6 3 10 8 10 11 0 2 -4 4 -10 4 -5 0 -10
-5 -10 -11z"/>
<path d="M2066 638 c3 -4 9 -8 15 -8 5 0 9 4 9 8 0 5 -7 9 -15 9 -8 0 -12 -4
-9 -9z"/>
<path d="M3003 633 c-23 -8 -14 -18 18 -19 16 -1 29 -1 27 0 -2 1 -10 7 -18
12 -8 6 -21 9 -27 7z"/>
<path d="M2187 607 c-3 -8 1 -14 8 -14 7 0 11 6 8 14 -3 7 -6 13 -8 13 -2 0
-5 -6 -8 -13z"/>
<path d="M2961 611 c-8 -5 -9 -11 -3 -15 5 -3 12 1 16 9 6 17 6 18 -13 6z"/>
<path d="M2257 593 c3 -7 6 -13 8 -13 2 0 5 6 8 13 3 8 -1 14 -8 14 -7 0 -11
-6 -8 -14z"/>
<path d="M2290 592 c0 -7 3 -12 8 -13 4 0 14 -2 23 -4 9 -1 16 3 16 11 0 9 -4
11 -12 4 -7 -6 -16 -5 -23 2 -9 9 -12 9 -12 0z"/>
<path d="M2150 579 c0 -5 5 -7 10 -4 6 3 10 8 10 11 0 2 -4 4 -10 4 -5 0 -10
-5 -10 -11z"/>
<path d="M2226 578 c3 -5 10 -6 15 -3 13 9 11 12 -6 12 -8 0 -12 -4 -9 -9z"/>
<path d="M2470 583 c0 -3 6 -11 14 -19 13 -12 15 -12 13 4 -1 15 -27 29 -27
15z"/>
<path d="M2513 573 c2 -12 7 -26 12 -30 4 -5 5 -3 1 4 -4 7 4 18 21 27 15 8
24 15 18 15 -5 1 -17 -3 -25 -9 -9 -6 -17 -5 -22 3 -5 7 -7 3 -5 -10z"/>
<path d="M2620 578 c0 -4 6 -8 14 -8 8 0 17 4 20 8 2 4 -4 8 -15 8 -10 0 -19
-4 -19 -8z"/>
<path d="M2754 582 c3 -5 0 -13 -6 -15 -9 -4 -10 -6 -1 -6 17 -1 25 16 12 25
-7 4 -9 3 -5 -4z"/>
<path d="M2443 573 c-17 -6 -17 -20 0 -20 8 0 14 6 14 14 0 7 -1 13 -1 12 -1
0 -7 -3 -13 -6z"/>
<path d="M2560 540 c-9 -6 -10 -10 -3 -10 6 0 15 5 18 10 8 12 4 12 -15 0z"/>
<path d="M2596 538 c3 -5 10 -6 15 -3 13 9 11 12 -6 12 -8 0 -12 -4 -9 -9z"/>
<path d="M2750 539 c0 -5 5 -7 10 -4 6 3 10 8 10 11 0 2 -4 4 -10 4 -5 0 -10
-5 -10 -11z"/>
</g>
</svg>
